# xmcd
#
# Track frame offsets:
#	150
#	16859
#	36778
#	47077
#	69776
#	84154
#	108155
#	123432
#	137077
#	155650
#	176201
#	191476
#	216367
#	237959
#	261814
#	286053
#	299829
#	323513
#
# Disc length: 4695 seconds
#
# Revision: 1
# Processed by: cddbd v1.5.2PL0 Copyright (c) Steve Scherf et al.
# Submitted via: audiograbber 1.83.01
#
DISCID=fe125512
DTITLE=Young Money Entertainment - Young Money Year 2K9, Vol. 1
DYEAR=2009
DGENRE=Rap
TTITLE0=Lil Wayne f./ Birdman - South Side
TTITLE1=Lil Wayne f./ Mack Maine - Baseball Sex
TTITLE2=Drake - Juice
TTITLE3=Drake and Lil Wayne - Man of the Year
TTITLE4=Lil Wayne f./ Young Money - Sacrifice
TTITLE5=Drake and Lil Wayne f./ Glasses Malone, Bun B and Akon - Certified (Remix)
TTITLE6=JR Writer f./ Lil Wayne - We Like the Cars
TTITLE7=Lil Wayne f./ Smitty and Ice Berg - Mr. Gangsta
TTITLE8=Drake and Lil Wayne - Stuntin'
TTITLE9=Drake and Lil Wayne f./ Kid Kid - Want This 4 Eva
TTITLE10=Drake and Lil Wayne f./ Santagold - Unstoppable (Remix)
TTITLE11=Drake and Lil Wayne - Stunt Hard
TTITLE12=Young Money - Every Girl
TTITLE13=Drake and Lil Wayne - Ignorant Shit
TTITLE14=Drake and Lil Wayne - Congratulation
TTITLE15=Drake and Lil Wayne - Brand New (Remix)
TTITLE16=Drake and Lil Wayne - Ransom
TTITLE17=Drake and Lil Wayne f./ Bun B - Uptown
EXTD=
EXTT0=
EXTT1=
EXTT2=
EXTT3=
EXTT4=
EXTT5=
EXTT6=
EXTT7=
EXTT8=
EXTT9=
EXTT10=
EXTT11=
EXTT12=
EXTT13=
EXTT14=
EXTT15=
EXTT16=
EXTT17=
PLAYORDER=
